<svg xmlns="http://www.w3.org/2000/svg" xmlns:xlink="http://www.w3.org/1999/xlink" version="1.1" id="Layer_1" x="0px" y="0px" width="100px" height="100px" viewBox="0 0 100 100" enable-background="new 0 0 100 100" xml:space="preserve">
<path d="M55.295,11.064c0.13,0.437,0.15,0.764-0.037,1.202c-0.21,0.482-0.177,0.895-0.511,1.33c-0.112,0.148-0.424,0.297-0.526,0.43  c-0.101,0.139-0.075,0.296-0.192,0.452c-0.141,0.187-0.279,0.299-0.382,0.5c-0.118,0.219-0.279,0.449-0.402,0.653  c-0.118,0.199-0.264,0.384-0.376,0.58c-0.146,0.268-0.193,0.462-0.236,0.775c-0.049,0.288-0.055,0.594-0.103,0.885  c-0.037,0.236-0.048,0.547-0.145,0.929c0.488-0.021,0.73,0.781,1.058,1.094c0.408,0.389,0.908,0.809,1.375,1.057  c0.778,0.414,1.848,0.853,2.379,1.486c0.683,0.813,1.085,2.242,1.488,3.238c0.209,0.507-0.055,1.167,0.16,1.651  c0.118,0.257,0.403,0.248,0.563,0.427c0.167,0.19,0.226,0.415,0.366,0.632c0.43,0.649,1.036,1.356,1.638,1.891  c0.672,0.591,1.289,1.917,1.573,1.917c1.358,0,2.652,0.591,3.942,0.784c1.047,0.155,3.039-0.047,3.867,0.575  c0.854-0.377,1.938,0.679,2.84,0.599c0.397-0.037,0.832-0.552,1.241-0.525c0.654,0.043-0.279,0.598-0.377,0.853  c0.581-0.006,1.332-0.853,1.826-0.463c0.301,0.24-0.516,0.345-0.585,0.701c0.284-0.033,1.17-0.081,0.832,0.416  c-0.149,0.218-0.988,0.236-1.256,0.369c-0.833,0.413-1.682,0.273-2.922,0.227c-0.167,0.695-0.327,2.219-1.053,2.483  c-0.709,0.262-1.558,0.286-2.341,0.286c-1.161,0-2.299,0.175-3.438-0.008c-1.219-0.197-2.465-0.769-3.667-1.091  c-1.058-0.283-2.385-0.458-2.98-1.476c-0.349-0.606-0.649-0.971-1.096-1.46c-0.215-0.228-0.468-0.467-0.633-0.715  c-0.125,0.621-0.35,1.187-0.409,1.562c-0.054,0.385-0.155,0.766-0.322,1.126c-0.358,0.813-0.467,1.557-0.645,2.444  c-0.183,0.913-0.451,1.573-0.579,2.494c-0.064,0.45-0.05,1.125,0.054,1.589c0.074,0.34,0.059,0.678,0.133,1.026  c0.108,0.506,0.221,1.149,0.237,1.662c0.037,1.117,0.226,2.212,0.258,3.323c0.048,1.42,0.064,2.836-0.145,4.289  c-0.135,0.943-0.135,1.971-0.135,2.398c0,0.431-0.574,0.55-0.574,0.55c-0.15,0.441-0.027,1.05-0.049,1.528  c-0.016,0.521-0.129,0.997-0.177,1.518c-0.092,0.958-0.366,1.914-0.397,2.873c-0.043,1.392,0.192,2.75,0.241,4.105  c0.016,0.414-0.129,0.857-0.145,1.243c-0.011,0.438,0.177,0.689,0.301,1.086c0.283,0.922,0.51,1.974,0.312,2.938  c-0.204,1.004,0.01,2.133,0.059,3.196c0.043,0.977,0.221,1.889,0.419,2.852c0.107,0.52,0.338,0.926,0.246,1.477  c-0.069,0.443-0.306,0.775-0.188,1.199c0.107,0.4,0.354,0.522,0.586,0.802c0.167,0.208,0.198,0.614,0.413,0.774  c0.14-0.234,0.634,0.524,0.516,0.767c0.155,0.031,0.468,0.206,0.554,0.329c0.031-0.078,0.107-0.094,0.192-0.064  c0.043,0.205,0.049,0.229,0.221,0.325c0.107,0.062,0.263,0.084,0.382,0.125c0.268,0.089,0.59,0.014,0.575,0.401  c0.358,0.142,0.745,0.264,1.1,0.384c0.413,0.14,0.902,0.24,1.198,0.545c0.268,0.279,0.73,0.655,0.688,1.08  c-0.075,0.646-0.393,0.757-0.721,1.002c-0.192,0.148-0.333,0.241-0.665,0.264c-0.145,0.011-0.505,0.047-0.769,0.071  c-0.145,0.015-0.397,0-0.548,0c-0.682,0-1.138-0.12-1.814-0.144c-0.226-0.006-0.671-0.386-0.854-0.53  c-0.177-0.141-0.295-0.114-0.505-0.216c-0.29-0.136-0.596-0.136-1.02-0.16c-0.184-0.009-0.382,0.052-0.602,0.086  c-0.408,0.058-0.646,0.058-1.343,0.032c-0.42-0.014-1.036-0.061-1.305-0.12c-0.65-0.14-1.725-0.31-1.913-0.953  c-0.106-0.344,0.038-1.062,0.135-1.403c0.064-0.228,0.15-0.407,0.172-0.652c0.032-0.344-0.044-0.494-0.291-0.755  c-0.268-0.287-0.483-0.533-0.473-0.938c0.011-0.398,0.172-0.604-0.005-1.021c-0.135-0.31-0.328-0.516-0.306-0.884  c0.033-0.592,0.284-1.114,0.284-1.705c0.006-0.741,0.092-1.333,0.075-2.062c-0.005-0.358-0.048-0.77-0.118-1.119  c-0.091-0.435-0.279-0.901-0.333-1.351c-0.144-1.172-0.429-2.635-0.434-3.733c0-1.251-0.135-2.431-0.414-3.607  c-0.275-1.127-0.258-2.291-0.301-3.464c-0.032-0.846-0.37-1.62-0.44-2.443c-0.043-0.485-0.038-0.986-0.038-1.482  c-0.038,0.625-0.736,1.995-0.892,2.594c-0.183,0.723-0.425,1.437-0.709,2.13c-0.575,1.395-0.393,3.033-0.58,4.521  c-0.193,1.528-0.929,3.137-1.659,4.507c-0.714,1.336-1.568,2.347-1.848,3.834c-0.295,1.549-0.805,2.879-1.09,4.423  c-0.258,1.374-1.515,3.485-0.849,4.05c1.896,1.612-0.253,4.188-0.371,4.31c-0.118,0.118-0.311-0.024-0.311-0.024  c0,0.257-0.048,0.56,0.07,0.782c0.059,0.105,0.198,0.168,0.247,0.264c0.049,0.092,0.021,0.162,0.044,0.269  c0.101,0.568,0.477,1.166,0.74,1.688c0.22,0.445,0.339,0.952,0.285,1.461c-0.059,0.53-0.23,1.027-0.708,1.287  c-0.692,0.368-1.203,0.268-2.132,0.314c-0.424,0.022-0.822-0.078-1.246-0.113c-0.393-0.034-0.704-0.046-1.064-0.154  c-0.172-0.053-0.36-0.11-0.526-0.186c-0.172-0.078-0.3-0.164-0.461-0.264c-0.199-0.131-0.397-0.172-0.591-0.316  c-0.242-0.177-0.333-0.43-0.403-0.731c-0.07-0.328-0.055-0.597,0.08-0.866c0.436-0.845-0.682-1.436-0.537-2.312  c0.085-0.498,0.446-0.799,0.644-1.235c0.135-0.28,0.215-0.654,0.354-0.967c0.075-0.161,0.156-0.447,0.307-0.523  c-0.108-0.545,0.477-0.837,0.364-1.381c-0.058-0.284-0.327-0.311-0.509-0.5c-0.215-0.226-0.425-0.521-0.354-0.835  c0.37-1.528,0.913-3.72,1.052-5.131c0.097-0.973,0.113-1.92,0.199-2.906c0.091-0.957,0.483-1.771,0.606-2.742  c0.14-1.044,0.033-2.133,0.285-3.138c0.129-0.52,0.499-0.962,0.618-1.48c0.134-0.615,0.097-1.383,0.155-2.02  c0.113-1.276,0.312-2.364,0.591-3.559c0.124-0.555,0.107-1.116,0.27-1.675c0.128-0.446,0.364-0.854,0.434-1.313  c0.23-1.663,0.032-2.704,0.355-5.067l-0.817-0.453c0.172-0.943,0.322-2.049,0.479-3.033c0.106-0.687,0.312-1.395,0.396-2.091  c0.06-0.474,0.006-0.929,0.108-1.394c0.161-0.731,0.273-1.434,0.333-2.175c0.048-0.548,0.076-1.122,0.226-1.652  c0.193-0.675,0.398-1.2,0.494-1.914c0.087-0.63,0.21-1.271,0.275-1.907c0.139-1.438-0.086-2.866-0.134-4.287  c-0.033-0.982-0.323-1.873-0.333-2.866c-0.242,0.429-0.36,0.882-0.457,1.147c-0.112,0.323-0.192,0.435-0.257,0.78  c-0.134,0.745-0.397,1.576-0.671,2.295c-0.312,0.812-0.656,1.658-1.171,2.404c-0.585,0.842-0.999,1.763-1.772,2.433  c-0.215,0.184-0.617,0.222-0.784-0.105c-0.038,0.23-0.499,0.668-0.747,0.682c-0.338,0.016-0.521-0.181-0.521-0.431  c0-0.17,0.124-0.556,0.193-0.913c-0.108,0.16-0.167,0.249-0.209,0.321c-0.107,0.162-0.156,0.239-0.29,0.377  c-0.248,0.255-1.015,1.044-1.327,0.396c-0.188-0.401,0.291-0.754,0.564-1.146c-0.564,0.212-0.903,1.134-1.482,0.743  c-0.595-0.396,0.419-1.318,0.735-1.813c-0.568,0.423-0.95,1.056-1.315,0.847c-0.359-0.209-0.198-0.543,0.028-0.931  c0.219-0.389,1.02-1.316,1.283-2.027c0.129-0.335,0.15-0.843,0.393-1.092c0.128-0.133,0.365-0.14,0.516-0.212  c0.198-0.09,0.375-0.106,0.563-0.355c0.188-0.246,0.097-0.72,0.081-1.067c-0.022-0.468,0.075-0.703,0.258-1.138  c0.102-0.232,0.192-0.45,0.305-0.68c0.162-0.325,0.361-0.433,0.602-0.693c0.215-0.229,0.446-0.515,0.656-0.773  c0.381-0.478,0.472-0.919,0.757-1.472c0.215-0.42,0.596-1.707,0.714-2.158c0.252-0.934,0.581-1.893,0.86-2.828  c0.274-0.916,0.3-1.912,0.252-2.892c-0.027-0.512,0.065-0.941,0.215-1.443c0.145-0.495,0.472-0.865,0.671-1.327  c0.348-0.802,0.606-1.562,1.45-1.858c0.939-0.331,1.895-0.538,2.846-0.817c0.386-0.111,0.757-0.076,1.128-0.188  c0.44-0.134,0.928-0.079,1.385-0.212c0.323-0.275,1.004-0.517,1.284-0.746c0.29-0.236,0.666-0.411,1.095-0.223  c0.092-0.325,0.258-0.554,0.29-0.906c0.021-0.2,0.01-0.432,0.048-0.621c0.038-0.16,0.087-0.286,0.092-0.453  c0.016-0.662-0.097-1.429-0.097-2.054c-0.381-0.167-0.719-0.383-0.902-0.579c-0.247-0.27-0.23-0.651-0.312-0.982  c-0.091-0.377-0.128-0.904,0.086-1.263c0.204-0.343,0.479-0.348,0.822-0.279c0.107-0.622,0.204-1.389,0.376-1.998  c0.188-0.663,0.704-1.203,1.251-1.583c0.424-0.296,0.999-0.485,1.515-0.531c0.666-0.059,1.38-0.158,2.031,0.078  c0.639,0.231,1.052,0.498,1.53,1.001c0.478,0.502,0.837,1.027,1.079,1.624c0.236,0.597,0.285,0.992,0.307,1.432  c0.015,0.257,0.032,0.56-0.005,0.813C55.359,10.435,55.29,10.825,55.295,11.064"/>
</svg>