<svg xmlns="http://www.w3.org/2000/svg" xmlns:xlink="http://www.w3.org/1999/xlink" version="1.1" id="Layer_1" x="0px" y="0px" width="100.0px" height="100px" viewBox="0 0 101 101" enable-background="new 0 0 101 101" xml:space="preserve">
<path d="M50.6,94.583c24.127,0,43.755-19.628,43.755-43.755c0-3.761-0.48-7.5-1.427-11.116c-0.169-0.644-0.669-1.148-1.312-1.323  c-0.642-0.173-1.329,0.009-1.799,0.48L50.706,77.981L21.042,48.318l10.51-10.51l17.839,17.84c0.349,0.348,0.821,0.544,1.314,0.544  c0.492,0,0.965-0.196,1.313-0.544l31.269-31.269c0.695-0.695,0.729-1.81,0.078-2.545c-8.307-9.38-20.25-14.76-32.766-14.76  c-24.127,0-43.755,19.628-43.755,43.755C6.845,74.955,26.473,94.583,50.6,94.583z"/>
</svg>