<svg xmlns="http://www.w3.org/2000/svg" xmlns:xlink="http://www.w3.org/1999/xlink" version="1.1" id="Layer_1" x="0px" y="0px" width="89.2857142857px" height="100px" viewBox="0 0 100 112.662" enable-background="new 0 0 100 112.662" xml:space="preserve">
<g>
	<path d="M72.528,51.2c4.216,4.266,7.23,9.72,8.491,15.818c3.82,0.319,6.822,3.516,6.822,7.417c0,4.114-3.335,7.449-7.449,7.449   s-7.449-3.335-7.449-7.449c0-3.473,2.38-6.381,5.596-7.206c-1.665-7.775-6.36-14.545-12.776-18.829   c-0.063-0.021-0.124-0.044-0.187-0.064L49.524,76.782L34.306,48.373c-1.181,0.388-2.343,0.82-3.483,1.292   c-6.215,5.014-9.712,12.851-10.001,22.492c6.311,0.552,11.318,8.355,11.318,17.929l-2.334,1.984   c0.198,0.305,0.315,0.666,0.315,1.057c0,1.074-0.871,1.944-1.945,1.944c-1.073,0-1.944-0.87-1.944-1.944s0.871-1.944,1.944-1.944   c0.375,0,0.723,0.111,1.021,0.296l2.005-1.393c0-9.156-4.965-16.579-11.09-16.579c-6.125,0-11.09,7.423-11.09,16.579l1.835,1.274   c0.245-0.111,0.516-0.178,0.803-0.178c1.074,0,1.945,0.87,1.945,1.944s-0.871,1.944-1.945,1.944c-1.074,0-1.945-0.87-1.945-1.944   c0-0.48,0.181-0.915,0.47-1.254l-2.102-1.787c0-9.037,4.463-16.494,10.271-17.77c0.293-8.226,2.717-15.653,8.125-21.121   C11.451,58.743,1.731,73.601,0,91.108c9.946,15.371,28.612,21.554,50,21.554c21.387,0,40.054-6.183,50-21.553   C98.269,73.603,87.551,58.749,72.528,51.2z M70.412,92.21h-4.985v4.984h-4.249V92.21h-4.985v-4.249h4.985v-4.985h4.249v4.985h4.985   V92.21z"/>
	<path d="M81.441,69.662c-0.339-0.074-0.688-0.119-1.049-0.119c-0.499,0-0.972,0.097-1.426,0.235   c-2.002,0.613-3.468,2.454-3.468,4.657c0,2.703,2.191,4.895,4.894,4.895s4.893-2.191,4.893-4.895   C85.285,72.094,83.638,70.143,81.441,69.662z"/>
	<path d="M50,0C36.652,0,25.832,10.82,25.832,24.167c0,8.577,4.472,16.104,11.207,20.394c0.475,0.302,0.957,0.594,1.453,0.863   c3.422,1.856,7.342,2.911,11.509,2.911c3.902,0,7.586-0.931,10.85-2.574c0.726-0.366,1.43-0.766,2.111-1.201   c6.734-4.289,11.206-11.817,11.206-20.394C74.167,10.82,63.347,0,50,0z"/>
</g>
</svg>