<svg xmlns="http://www.w3.org/2000/svg" xmlns:xlink="http://www.w3.org/1999/xlink" version="1.1" id="Layer_1" x="0px" y="0px" width="100px" height="100px" viewBox="0 0 100 100" enable-background="new 0 0 100 100" xml:space="preserve">
<path d="M84.098,64.36L72.433,52.941c1.709-2.413,2.716-5.335,2.716-8.494c0-8.25-6.831-14.937-15.258-14.937  c-8.426,0-15.257,6.687-15.257,14.937c0,8.25,6.831,14.933,15.257,14.933c3.117,0,6.013-0.919,8.429-2.487l11.703,11.452  L84.098,64.36z M49.164,44.448c0-5.801,4.803-10.505,10.727-10.505c5.925,0,10.729,4.704,10.729,10.505S65.815,54.95,59.891,54.95  C53.967,54.95,49.164,50.249,49.164,44.448z"/>
<g>
	<path d="M59.891,49.586c2.958,0,5.364-2.305,5.364-5.139c0-2.834-2.406-5.141-5.364-5.141c-2.957,0-5.363,2.307-5.363,5.141   C54.527,47.281,56.934,49.586,59.891,49.586z"/>
</g>
<g>
	<path d="M59.891,64.745c-10.972,0-19.944-8.485-20.56-19.137c-5.438-1.951-9.349-7.1-9.349-13.203   c0-7.773,6.303-14.083,14.079-14.083c4.872,0,9.162,2.475,11.69,6.236c1.337-0.27,2.722-0.411,4.139-0.411   c4.272,0,8.244,1.286,11.54,3.486C68.484,15.232,57.367,6,44.062,6C28.506,6,15.902,18.605,15.902,34.16   C15.902,50,44.062,94,44.062,94s9.012-14.174,16.84-29.299C60.564,64.717,60.229,64.745,59.891,64.745z"/>
</g>
</svg>