<svg xmlns="http://www.w3.org/2000/svg" xmlns:xlink="http://www.w3.org/1999/xlink" version="1.1" id="Layer_1" x="0px" y="0px" width="100px" height="100px" viewBox="0 0 100 100" enable-background="new 0 0 100 100" xml:space="preserve">
<path fill="#000000" d="M59.449,34.062c-0.012-2.44-0.939-4.854-2.808-6.713c-1.865-1.851-4.283-2.757-6.726-2.752  c-2.444,0.008-4.851,0.938-6.708,2.804c-1.849,1.871-2.765,4.29-2.756,6.725c0.014,2.439,0.936,4.854,2.807,6.708  c1.866,1.849,4.286,2.764,6.725,2.758c2.445-0.01,4.855-0.943,6.71-2.805C58.541,38.92,59.457,36.5,59.449,34.062z M50.227,3.18  c-26.048,0-47.167,21.118-47.167,47.166c0,26.049,21.118,47.167,47.167,47.167s47.167-21.118,47.167-47.167  C97.394,24.298,76.275,3.18,50.227,3.18z M42.828,47.186L26.2,63.285c-0.595,0.6-1.891,0.283-3.167-0.988  c-1.273-1.265-1.605-2.56-1.003-3.161l15.691-16.622c-1.732-2.514-2.622-5.444-2.631-8.367c-0.013-3.793,1.434-7.618,4.318-10.522  c2.886-2.91,6.694-4.382,10.49-4.39c3.795-0.014,7.612,1.43,10.517,4.314c2.907,2.888,4.38,6.697,4.392,10.494  c0.017,3.792-1.427,7.614-4.312,10.52c-2.886,2.905-6.693,4.38-10.488,4.388c-2.462,0.011-4.926-0.602-7.15-1.812  C42.844,47.152,42.84,47.172,42.828,47.186z M72,69H62v10h-6V69H46v-6h10V53h6v10h10V69z"/>
</svg>